<svg width="1440" height="508" viewBox="0 0 1440 508" fill="none" xmlns="http://www.w3.org/2000/svg">
<mask id="mask0_764_1192" style="mask-type:luminance" maskUnits="userSpaceOnUse" x="-108" y="0" width="1657" height="732">
<path d="M1377.08 296.403C1338.66 296.403 1303.19 309.015 1274.56 330.312C1263.05 253.145 1200.27 192.729 1121.97 184.846C1127.04 174.465 1129.97 162.844 1129.97 150.514C1129.97 107.198 1094.85 72.0896 1051.54 72.0896C1032.08 72.0896 1014.31 79.2167 1000.6 90.9579C959.677 35.7763 894.074 0 820.102 0C731.934 0 655.678 50.8283 618.917 124.763C594.631 111.641 566.837 104.18 537.297 104.18C463.294 104.18 400.219 150.941 375.986 216.524C347.696 196.065 312.957 183.975 275.377 183.975C205.681 183.975 145.718 225.471 118.722 285.084C101.506 279.297 83.0916 276.111 63.9262 276.111C-31.0253 276.111 -108 353.086 -108 448.037C-108 542.989 -31.0253 619.969 63.9262 619.969C72.6226 619.969 81.1626 619.312 89.5097 618.066C119.796 667.085 174.003 699.764 235.852 699.764C298.213 699.764 352.816 666.563 382.956 616.872C393.472 618.884 404.317 619.974 415.417 619.974C437.564 619.974 458.711 615.74 478.153 608.113C506.99 662.611 564.236 699.764 630.189 699.764C679.385 699.764 723.727 679.066 755.067 645.943C784.816 697.246 840.289 731.781 903.865 731.781C955.324 731.781 1001.46 709.149 1032.97 673.326C1064.48 709.149 1110.62 731.781 1162.08 731.781C1231.97 731.781 1292.07 690.056 1318.96 630.182C1337.11 636.705 1356.67 640.276 1377.07 640.276C1472.03 640.276 1549 563.301 1549 468.345C1549 373.388 1472.03 296.403 1377.08 296.403Z" fill="white"/>
</mask>
<g mask="url(#mask0_764_1192)">
<path d="M1377.08 296.403C1338.66 296.403 1303.19 309.015 1274.56 330.312C1263.05 253.145 1200.27 192.729 1121.97 184.846C1127.04 174.465 1129.97 162.844 1129.97 150.514C1129.97 107.198 1094.85 72.0896 1051.54 72.0896C1032.08 72.0896 1014.31 79.2167 1000.6 90.9579C959.677 35.7763 894.074 0 820.102 0C731.934 0 655.678 50.8283 618.917 124.763C594.631 111.641 566.837 104.18 537.297 104.18C463.294 104.18 400.219 150.941 375.986 216.524C347.696 196.065 312.957 183.975 275.377 183.975C205.681 183.975 145.718 225.471 118.722 285.084C101.506 279.297 83.0916 276.111 63.9262 276.111C-31.0253 276.111 -108 353.086 -108 448.037C-108 542.989 -31.0253 619.969 63.9262 619.969C72.6226 619.969 81.1626 619.312 89.5097 618.066C119.796 667.085 174.003 699.764 235.852 699.764C298.213 699.764 352.816 666.563 382.956 616.872C393.472 618.884 404.317 619.974 415.417 619.974C437.564 619.974 458.711 615.74 478.153 608.113C506.99 662.611 564.236 699.764 630.189 699.764C679.385 699.764 723.727 679.066 755.067 645.943C784.816 697.246 840.289 731.781 903.865 731.781C955.324 731.781 1001.46 709.149 1032.97 673.326C1064.48 709.149 1110.62 731.781 1162.08 731.781C1231.97 731.781 1292.07 690.056 1318.96 630.182C1337.11 636.705 1356.67 640.276 1377.07 640.276C1472.03 640.276 1549 563.301 1549 468.345C1549 373.388 1472.03 296.403 1377.08 296.403Z" fill="white"/>
</g>
<mask id="mask1_764_1192" style="mask-type:luminance" maskUnits="userSpaceOnUse" x="-108" y="0" width="1657" height="732">
<path d="M1377.08 296.403C1338.66 296.403 1303.19 309.015 1274.56 330.312C1263.05 253.145 1200.27 192.729 1121.97 184.846C1127.04 174.465 1129.97 162.844 1129.97 150.514C1129.97 107.198 1094.85 72.0896 1051.54 72.0896C1032.08 72.0896 1014.31 79.2167 1000.6 90.9579C959.677 35.7763 894.074 0 820.102 0C731.934 0 655.678 50.8283 618.917 124.763C594.631 111.641 566.837 104.18 537.297 104.18C463.294 104.18 400.219 150.941 375.986 216.524C347.696 196.065 312.957 183.975 275.377 183.975C205.681 183.975 145.718 225.471 118.722 285.084C101.506 279.297 83.0916 276.111 63.9262 276.111C-31.0253 276.111 -108 353.086 -108 448.037C-108 542.989 -31.0253 619.969 63.9262 619.969C72.6226 619.969 81.1626 619.312 89.5097 618.066C119.796 667.085 174.003 699.764 235.852 699.764C298.213 699.764 352.816 666.563 382.956 616.872C393.472 618.884 404.317 619.974 415.417 619.974C437.564 619.974 458.711 615.74 478.153 608.113C506.99 662.611 564.236 699.764 630.189 699.764C679.385 699.764 723.727 679.066 755.067 645.943C784.816 697.246 840.289 731.781 903.865 731.781C955.324 731.781 1001.46 709.149 1032.97 673.326C1064.48 709.149 1110.62 731.781 1162.08 731.781C1231.97 731.781 1292.07 690.056 1318.96 630.182C1337.11 636.705 1356.67 640.276 1377.07 640.276C1472.03 640.276 1549 563.301 1549 468.345C1549 373.388 1472.03 296.403 1377.08 296.403Z" fill="white"/>
</mask>
<g mask="url(#mask1_764_1192)">
<path d="M100.641 253.15C100.641 253.15 313.459 22.3458 431.689 312.012C431.689 312.012 408.045 230.731 489.326 217.426C570.608 204.126 720.501 403.638 720.501 403.638C720.501 403.638 776.037 263.238 833.674 264.714C891.311 266.189 901.655 334.176 901.655 334.176C901.655 334.176 997.717 201.164 1104.13 220.377C1104.13 220.377 1002.96 239.589 974.474 323.827C974.474 323.827 1080.48 221.852 1159.55 244.761C1238.61 267.67 1195.76 475.31 1195.76 475.31C1195.76 475.31 1309.56 293.613 1536.16 365.864C1536.16 365.864 1821.89 492.307 1536.16 696.255C1250.44 900.204 -17.5942 696.255 -17.5942 696.255C-17.5942 696.255 -353.126 268.812 100.641 253.15Z" fill="#E5F5FF"/>
</g>
<mask id="mask2_764_1192" style="mask-type:luminance" maskUnits="userSpaceOnUse" x="-108" y="0" width="1657" height="732">
<path d="M1377.08 296.403C1338.66 296.403 1303.19 309.015 1274.56 330.312C1263.05 253.145 1200.27 192.729 1121.97 184.846C1127.04 174.465 1129.97 162.844 1129.97 150.514C1129.97 107.198 1094.85 72.0896 1051.54 72.0896C1032.08 72.0896 1014.31 79.2167 1000.6 90.9579C959.677 35.7763 894.074 0 820.102 0C731.934 0 655.678 50.8283 618.917 124.763C594.631 111.641 566.837 104.18 537.297 104.18C463.294 104.18 400.219 150.941 375.986 216.524C347.696 196.065 312.957 183.975 275.377 183.975C205.681 183.975 145.718 225.471 118.722 285.084C101.506 279.297 83.0916 276.111 63.9262 276.111C-31.0253 276.111 -108 353.086 -108 448.037C-108 542.989 -31.0253 619.969 63.9262 619.969C72.6226 619.969 81.1626 619.312 89.5097 618.066C119.796 667.085 174.003 699.764 235.852 699.764C298.213 699.764 352.816 666.563 382.956 616.872C393.472 618.884 404.317 619.974 415.417 619.974C437.564 619.974 458.711 615.74 478.153 608.113C506.99 662.611 564.236 699.764 630.189 699.764C679.385 699.764 723.727 679.066 755.067 645.943C784.816 697.246 840.289 731.781 903.865 731.781C955.324 731.781 1001.46 709.149 1032.97 673.326C1064.48 709.149 1110.62 731.781 1162.08 731.781C1231.97 731.781 1292.07 690.056 1318.96 630.182C1337.11 636.705 1356.67 640.276 1377.07 640.276C1472.03 640.276 1549 563.301 1549 468.345C1549 373.388 1472.03 296.403 1377.08 296.403Z" fill="white"/>
</mask>
<g mask="url(#mask2_764_1192)">
<path d="M-108.005 344.53C-108.005 344.53 -73.7507 577.05 120.344 521.879C120.344 521.879 155.813 664.744 249.414 658.832C343.015 652.919 377.498 539.616 377.498 539.616C377.498 539.616 377.498 579.026 430.704 576.07C483.909 573.114 522.334 475.571 522.334 475.571C522.334 475.571 501.646 581.977 598.198 621.392C694.756 660.802 749.927 578.041 749.927 578.041C749.927 578.041 832.689 677.554 922.348 670.656C1012.01 663.758 1064.23 547.499 1064.23 547.499C1064.23 547.499 1108.84 689.363 1203.15 677.554C1297.46 665.745 1329.27 575.084 1329.27 575.084C1329.27 575.084 1485.92 638.144 1561.79 451.927L1539.13 774.106H-121.044L-108.005 344.53Z" fill="#B8DAE7"/>
</g>
</svg>
